<svg width="82" height="29" viewBox="0 0 82 29" fill="none" xmlns="http://www.w3.org/2000/svg">
<g clip-path="url(#clip0_89_464)">
<path d="M0.630004 28.475C0.21 28.475 0 28.265 0 27.845V24.485C0 24.085 0.21 23.885 0.630004 23.885H8.94V21.395C8.94 20.995 9.14 20.795 9.53999 20.795H14.16C14.56 20.795 14.76 20.995 14.76 21.395V23.885H23.04C23.46 23.885 23.67 24.085 23.67 24.485V27.845C23.67 28.265 23.46 28.475 23.04 28.475H0.630004ZM6.69 15.065H22.23C22.65 15.065 22.86 15.265 22.86 15.665V18.965C22.86 19.365 22.65 19.565 22.23 19.565H1.5C1.3 19.565 1.14 19.515 1.02 19.415C0.900004 19.315 0.850004 19.155 0.870004 18.935L1.32 11.195C1.36 10.815 1.57 10.625 1.95 10.625H6.27C6.71 10.625 6.92 10.835 6.9 11.255L6.69 15.065ZM0.570004 5.825C0.570004 5.425 0.780004 5.225 1.2 5.225H22.11C22.53 5.225 22.74 5.425 22.74 5.825V9.125C22.74 9.525 22.53 9.725 22.11 9.725H1.2C0.780004 9.725 0.570004 9.525 0.570004 9.125V5.825ZM27.1144 28.475C26.6944 28.475 26.4844 28.265 26.4844 27.845V24.485C26.4844 24.085 26.6944 23.885 27.1144 23.885H35.4244V21.395C35.4244 20.995 35.6244 20.795 36.0244 20.795H40.6444C41.0444 20.795 41.2444 20.995 41.2444 21.395V23.885H49.5244C49.9444 23.885 50.1544 24.085 50.1544 24.485V27.845C50.1544 28.265 49.9444 28.475 49.5244 28.475H27.1144ZM33.1744 15.065H48.7144C49.1344 15.065 49.3444 15.265 49.3444 15.665V18.965C49.3444 19.365 49.1344 19.565 48.7144 19.565H27.9844C27.7844 19.565 27.6244 19.515 27.5044 19.415C27.3844 19.315 27.3344 19.155 27.3544 18.935L27.8044 11.195C27.8444 10.815 28.0544 10.625 28.4344 10.625H32.7544C33.1944 10.625 33.4044 10.835 33.3844 11.255L33.1744 15.065ZM27.0544 5.825C27.0544 5.425 27.2644 5.225 27.6844 5.225H48.5944C49.0144 5.225 49.2244 5.425 49.2244 5.825V9.125C49.2244 9.525 49.0144 9.725 48.5944 9.725H27.6844C27.2644 9.725 27.0544 9.525 27.0544 9.125V5.825ZM60.6588 8.21H79.4888C79.9788 8.21 80.2238 8.44333 80.2238 8.91V11.745C80.2238 12.2117 79.9788 12.445 79.4888 12.445H70.4238V14.405H80.0838C80.5738 14.405 80.8188 14.6383 80.8188 15.105V18.36C80.8188 18.85 80.5738 19.095 80.0838 19.095H53.9388C53.4488 19.095 53.2038 18.85 53.2038 18.36V15.105C53.2038 14.6383 53.4488 14.405 53.9388 14.405H63.6338V12.445H54.6038C54.3704 12.445 54.1838 12.3867 54.0438 12.27C53.9038 12.1533 53.8454 11.9667 53.8688 11.71L54.3938 6.915C54.4404 6.47166 54.6854 6.25 55.1288 6.25H60.0988C60.6121 6.25 60.8571 6.495 60.8338 6.985L60.6588 8.21ZM54.4988 25.395C54.0321 25.395 53.7988 25.1733 53.7988 24.73V21.685C53.7988 21.2183 54.0321 20.985 54.4988 20.985H79.6288C80.0954 20.985 80.3288 21.2183 80.3288 21.685V28.475C80.3288 28.9417 80.0954 29.175 79.6288 29.175H74.2388C73.7721 29.175 73.5388 28.9417 73.5388 28.475V25.395H54.4988ZM53.5188 1.7C53.5188 1.23333 53.7638 1 54.2538 1H79.3488C79.8388 1 80.0838 1.23333 80.0838 1.7V4.5C80.0838 4.96667 79.8388 5.2 79.3488 5.2H54.2538C53.7638 5.2 53.5188 4.96667 53.5188 4.5V1.7Z" fill="#646464"/>
</g>
<defs>
<clipPath id="clip0_89_464">
<rect width="82" height="29" fill="white"/>
</clipPath>
</defs>
</svg>
