<svg width="40" height="40" viewBox="0 0 40 40" fill="none" xmlns="http://www.w3.org/2000/svg">
<g id="undo_FILL0_wght400_GRAD0_opsz24 (1) 1">
<path id="Vector" d="M11.6667 31.6667V28.3334H23.5C25.25 28.3334 26.7709 27.7779 28.0625 26.6667C29.3542 25.5556 30 24.1667 30 22.5001C30 20.8334 29.3542 19.4445 28.0625 18.3334C26.7709 17.2223 25.25 16.6667 23.5 16.6667H13L17.3334 21.0001L15 23.3334L6.66669 15.0001L15 6.66675L17.3334 9.00008L13 13.3334H23.5C26.1945 13.3334 28.507 14.2084 30.4375 15.9584C32.3681 17.7084 33.3334 19.889 33.3334 22.5001C33.3334 25.1112 32.3681 27.2917 30.4375 29.0417C28.507 30.7917 26.1945 31.6667 23.5 31.6667H11.6667Z" fill="#495057"/>
</g>
</svg>
